<?xml version="1.0" encoding="UTF-8"?>
<svg xmlns="http://www.w3.org/2000/svg" width="108" height="108" viewBox="0 0 108 108">
  <!-- Layer 1: Outer red ring (radius 44) -->
  <circle cx="54" cy="54" r="44" fill="#D32F2F"/>

  <!-- Layer 2: White ring (radius 39) -->
  <circle cx="54" cy="54" r="39" fill="#FFFFFF"/>

  <!-- Layer 3: Inner red circle (radius 34) -->
  <circle cx="54" cy="54" r="34" fill="#C62828"/>

  <!-- Gradient overlay for dimension -->
  <path fill="#F44336" fill-opacity="0.3" d="M54,32 Q32,44 32,54 Q32,64 54,76 Q76,64 76,54 Q76,44 54,32 Z"/>

  <!-- Center search box icon -->
  <g transform="translate(30,36) scale(2,2)">
    <!-- Open cardboard box -->
    <g transform="scale(0.0545,0.0545)">
      <path fill="#ffffff" d="M439.9,111.711c-0.374-2.142-1.786-3.958-3.77-4.85L274.576,34.147c-2.352-1.06-5.109-0.642-7.04,1.07L220,77.293l-47.536-42.076c-1.93-1.711-4.688-2.13-7.039-1.07L3.869,106.861c-1.982,0.892-3.395,2.708-3.77,4.85c-0.375,2.14,0.334,4.328,1.894,5.842l51.033,49.502l-28.774,50.806c-1.781,3.146-0.683,7.14,2.457,8.931l27.964,15.96v65.271c0,2.342,1.248,4.507,3.274,5.678l158.768,91.85c1.017,0.587,2.15,0.882,3.286,0.882c1.083,0,2.165-0.275,3.146-0.812c-0.002,0.004-0.008,0.01-0.009,0.014l158.915-91.933c2.026-1.171,3.274-3.336,3.274-5.678v-65.271l27.966-15.96c3.14-1.791,4.237-5.785,2.455-8.931l-28.772-50.806l51.031-49.502C439.567,116.039,440.277,113.851,439.9,111.711z M278.612,213.567l-52.052-30.151V96.697l138.129,69.444L278.612,213.567z M75.311,166.142l138.131-69.445v86.719l-52.054,30.151L75.311,166.142z M18.063,114.861l148.879-67.008l41.454,36.691L62.453,157.918L18.063,114.861z M38.892,218.639l24.854-43.887l146.41,80.665l-32.483,42.427L38.892,218.639z M213.44,388.497L67.793,304.239v-53.998l108.353,61.839c1.021,0.583,2.139,0.863,3.248,0.863c1.983,0,3.932-0.9,5.214-2.573l28.833-37.659L213.44,388.497L213.44,388.497z M220,245.861l-45.196-24.901L220,194.78l45.196,26.18L220,245.861z M372.206,304.239l-145.646,84.258V272.71l28.833,37.659c1.28,1.673,3.229,2.573,5.214,2.573c1.106,0,2.227-0.28,3.248-0.863l108.351-61.839V304.239z M401.109,218.639l-138.781,79.204l-32.484-42.427l146.411-80.665L401.109,218.639z M377.548,157.918L231.604,84.544l41.452-36.691l148.881,67.008L377.548,157.918z"/>
    </g>

    <!-- Magnifying glass -->
    <g transform="translate(-5,12) scale(0.08,0.08) rotate(300)">
      <path fill="#ffffff" d="m 199.23435,34.95633 c -7.9727,0.0915 -16.0503,1.18851 -24.0937,3.34375 -51.4782,13.79352 -82.481197,66.62958 -68.75,117.875 10.6101,39.59758 44.8402,66.66278 83.5937,70.5625 l 0,12.84375 c -1.6274,-0.13386 -3.2537,-0.29413 -4.875,-0.5 -2.8073,-0.35336 -5.7544,0.56431 -7.875,2.4375 -2.1206,1.87318 -3.3792,4.67057 -3.375,7.5 l 0,89.71875 c 0,14.34924 11.7566,26.31254 26.125,26.31254 14.3684,0 26.1563,-11.9619 26.1563,-26.31254 l 0,-89.96875 c 7e-4,-2.66546 -1.1206,-5.32905 -3.0313,-7.1875 -1.9107,-1.85845 -4.5856,-2.88719 -7.25,-2.8125 -0.3764,0.01 -0.7522,0.0413 -1.125,0.0937 -1.5793,0.22456 -3.1647,0.40622 -4.75,0.5625 l 0,-12.75 c 4.9473,-0.53186 9.9238,-1.45459 14.875,-2.78125 51.4781,-13.79352 82.4812,-66.62959 68.75,-117.875 -11.5857,-43.23832 -51.3222,-71.55667 -94.375,-71.0625 z m 0.375,20.0625 c 34.3416,-0.47312 65.5825,21.94255 74.75,56.15625 10.8652,40.54956 -13.4005,82.24968 -54.6875,93.3125 -41.287,11.06282 -83.166,-12.91919 -94.0312,-53.46875 -10.8653,-40.54956 13.4004,-82.24968 54.6875,-93.3125 6.451,-1.72857 12.9216,-2.59988 19.2812,-2.6875 z m 0.375,19.53125 a 5.015625,5.015625 0 1 0 0,10.03125 c 26.1526,0 47.2813,21.09744 47.2813,47.25 0,4.12891 -0.5564,8.23053 -1.625,12.21875 a 5.0052995,5.0052995 0 0 0 9.6562,2.59375 c 1.2948,-4.83234 1.9688,-9.80969 1.9688,-14.8125 0,-31.55697 -25.7243,-57.28125 -57.2813,-57.28125 z m -36.9687,89.15625 a 5.0005001,5.0005001 0 0 0 -3.5,8.59375 c 7.1054,7.1054 15.9813,12.21174 25.6875,14.8125 a 5.0005001,5.0005001 0 1 0 2.5625,-9.65625 c -8.0111,-2.14656 -15.323,-6.35422 -21.1875,-12.21875 a 5.0005001,5.0005001 0 0 0 -3.5625,-1.53125 z m 43.125,96 0,79.03125 c 0,3.72832 -2.6348,6.3125 -6.1563,6.3125 -3.5215,0 -6.125,-2.58274 -6.125,-6.3125 l 0,-78.9375 c 4.0968,0.16382 8.1857,0.12703 12.2813,-0.0937 z"/>
    </g>
  </g>
</svg>
